<svg width="18" height="18" viewBox="0 0 18 18" fill="none" xmlns="http://www.w3.org/2000/svg">
<path fill-rule="evenodd" clip-rule="evenodd" d="M11.127 1.86441C11.7072 1.62399 12.3291 1.50024 12.9572 1.50024C13.5853 1.50024 14.2072 1.62399 14.7874 1.86441C15.3677 2.10483 15.8949 2.45722 16.3389 2.90143C16.783 3.3454 17.1353 3.8725 17.3757 4.45264C17.6161 5.03287 17.7398 5.65479 17.7398 6.28286C17.7398 6.91094 17.6161 7.53285 17.3757 8.11309C17.1353 8.69327 16.7829 9.22041 16.3388 9.6644C16.3387 9.66444 16.3388 9.66437 16.3388 9.6644L9.70876 16.2944C9.45248 16.5507 9.03696 16.5507 8.78068 16.2944L2.15068 9.6644C1.25384 8.76756 0.75 7.55119 0.75 6.28286C0.75 5.01454 1.25384 3.79816 2.15068 2.90132C3.04752 2.00448 4.26389 1.50065 5.53222 1.50065C6.80054 1.50065 8.01692 2.00448 8.91376 2.90132L9.24472 3.23229L9.57557 2.90143C10.0196 2.45722 10.5468 2.10483 11.127 1.86441ZM15.4106 3.82929C15.0884 3.50702 14.706 3.25137 14.285 3.07694C13.8641 2.90252 13.4129 2.81274 12.9572 2.81274C12.5016 2.81274 12.0504 2.90252 11.6294 3.07694C11.2085 3.25137 10.826 3.50702 10.5039 3.82929L9.70876 4.6244C9.45248 4.88068 9.03696 4.88068 8.78068 4.6244L7.98568 3.8294C7.33498 3.1787 6.45244 2.81315 5.53222 2.81315C4.61199 2.81315 3.72946 3.1787 3.07876 3.8294C2.42806 4.4801 2.0625 5.36264 2.0625 6.28286C2.0625 7.20309 2.42806 8.08563 3.07876 8.73632L9.24472 14.9023L15.4107 8.73632C15.733 8.4142 15.9887 8.03163 16.1631 7.61067C16.3376 7.18972 16.4273 6.73852 16.4273 6.28286C16.4273 5.8272 16.3376 5.37601 16.1631 4.95505C15.9887 4.5341 15.7328 4.15142 15.4106 3.82929Z" fill="#333D4C"/>
</svg>
