<svg width="18" height="18" viewBox="0 0 18 18" fill="none" xmlns="http://www.w3.org/2000/svg">
<g clip-path="url(#clip0_11711_583)">
<path fill-rule="evenodd" clip-rule="evenodd" d="M9 5.90649C7.29137 5.90649 5.90625 7.29161 5.90625 9.00024C5.90625 10.7089 7.29137 12.094 9 12.094C10.7086 12.094 12.0938 10.7089 12.0938 9.00024C12.0938 7.29161 10.7086 5.90649 9 5.90649ZM4.59375 9.00024C4.59375 6.56674 6.5665 4.59399 9 4.59399C11.4335 4.59399 13.4062 6.56674 13.4062 9.00024C13.4062 11.4337 11.4335 13.4065 9 13.4065C6.5665 13.4065 4.59375 11.4337 4.59375 9.00024Z" fill="#333D4C"/>
<path fill-rule="evenodd" clip-rule="evenodd" d="M9 0.0939941C9.36244 0.0939941 9.65625 0.387807 9.65625 0.750244V2.25024C9.65625 2.61268 9.36244 2.90649 9 2.90649C8.63756 2.90649 8.34375 2.61268 8.34375 2.25024V0.750244C8.34375 0.387807 8.63756 0.0939941 9 0.0939941Z" fill="#333D4C"/>
<path fill-rule="evenodd" clip-rule="evenodd" d="M9 15.094C9.36244 15.094 9.65625 15.3878 9.65625 15.7502V17.2502C9.65625 17.6127 9.36244 17.9065 9 17.9065C8.63756 17.9065 8.34375 17.6127 8.34375 17.2502V15.7502C8.34375 15.3878 8.63756 15.094 9 15.094Z" fill="#333D4C"/>
<path fill-rule="evenodd" clip-rule="evenodd" d="M2.70096 2.70121C2.95724 2.44492 3.37276 2.44492 3.62904 2.70121L4.69404 3.76621C4.95032 4.02249 4.95032 4.438 4.69404 4.69428C4.43776 4.95056 4.02224 4.95056 3.76596 4.69428L2.70096 3.62928C2.44468 3.373 2.44468 2.95749 2.70096 2.70121Z" fill="#333D4C"/>
<path fill-rule="evenodd" clip-rule="evenodd" d="M13.306 13.3062C13.5622 13.0499 13.9778 13.0499 14.234 13.3062L15.299 14.3712C15.5553 14.6275 15.5553 15.043 15.299 15.2993C15.0428 15.5556 14.6272 15.5556 14.371 15.2993L13.306 14.2343C13.0497 13.978 13.0497 13.5625 13.306 13.3062Z" fill="#333D4C"/>
<path fill-rule="evenodd" clip-rule="evenodd" d="M0.09375 9.00024C0.09375 8.63781 0.387563 8.34399 0.75 8.34399H2.25C2.61244 8.34399 2.90625 8.63781 2.90625 9.00024C2.90625 9.36268 2.61244 9.65649 2.25 9.65649H0.75C0.387563 9.65649 0.09375 9.36268 0.09375 9.00024Z" fill="#333D4C"/>
<path fill-rule="evenodd" clip-rule="evenodd" d="M15.0938 9.00024C15.0938 8.63781 15.3876 8.34399 15.75 8.34399H17.25C17.6124 8.34399 17.9062 8.63781 17.9062 9.00024C17.9062 9.36268 17.6124 9.65649 17.25 9.65649H15.75C15.3876 9.65649 15.0938 9.36268 15.0938 9.00024Z" fill="#333D4C"/>
<path fill-rule="evenodd" clip-rule="evenodd" d="M4.69404 13.3062C4.95032 13.5625 4.95032 13.978 4.69404 14.2343L3.62904 15.2993C3.37276 15.5556 2.95724 15.5556 2.70096 15.2993C2.44468 15.043 2.44468 14.6275 2.70096 14.3712L3.76596 13.3062C4.02224 13.0499 4.43776 13.0499 4.69404 13.3062Z" fill="#333D4C"/>
<path fill-rule="evenodd" clip-rule="evenodd" d="M15.299 2.70121C15.5553 2.95749 15.5553 3.373 15.299 3.62928L14.234 4.69428C13.9778 4.95056 13.5622 4.95056 13.306 4.69428C13.0497 4.438 13.0497 4.02249 13.306 3.76621L14.371 2.70121C14.6272 2.44492 15.0428 2.44492 15.299 2.70121Z" fill="#333D4C"/>
</g>
<defs>
<clipPath id="clip0_11711_583">
<rect width="18" height="18" fill="white" transform="translate(0 0.000244141)"/>
</clipPath>
</defs>
</svg>
