<svg width="80" height="80" viewBox="0 0 80 80" fill="none" xmlns="http://www.w3.org/2000/svg">
<path d="M56.6668 36.0172C56.6668 34.8638 56.6668 34.2872 56.8401 33.7738C57.3435 32.2805 58.6735 31.7038 60.0068 31.0972C61.5001 30.4138 62.2468 30.0738 62.9901 30.0138C63.8301 29.9472 64.6735 30.1272 65.3935 30.5305C66.3468 31.0638 67.0135 32.0838 67.6935 32.9105C70.8368 36.7305 72.4101 38.6405 72.9835 40.7438C73.4501 42.4438 73.4501 44.2238 72.9835 45.9205C72.1468 48.9938 69.4968 51.5672 67.5335 53.9538C66.5301 55.1705 66.0268 55.7805 65.3935 56.1371C64.6611 56.5433 63.8247 56.7231 62.9901 56.6538C62.2468 56.5938 61.5001 56.2538 60.0035 55.5705C58.6701 54.9638 57.3435 54.3872 56.8401 52.8938C56.6668 52.3805 56.6668 51.8038 56.6668 50.6505V36.0172ZM23.3335 36.0172C23.3335 34.5638 23.2935 33.2605 22.1201 32.2405C21.6935 31.8705 21.1268 31.6138 19.9968 31.0972C18.5001 30.4172 17.7535 30.0738 17.0101 30.0138C14.7868 29.8338 13.5901 31.3538 12.3101 32.9138C9.16345 36.7305 7.59012 38.6405 7.01345 40.7472C6.54947 42.4415 6.54947 44.2295 7.01345 45.9238C7.85345 48.9938 10.5068 51.5705 12.4668 53.9538C13.7035 55.4538 14.8868 56.8238 17.0101 56.6538C17.7535 56.5938 18.5001 56.2538 19.9968 55.5705C21.1301 55.0571 21.6935 54.7971 22.1201 54.4271C23.2935 53.4071 23.3335 52.1038 23.3335 50.6538V36.0172Z" stroke="black" stroke-width="2.13333" stroke-linecap="round" stroke-linejoin="round"/>
<path d="M16.6667 30C16.6667 18.9533 27.1134 10 40 10C52.8867 10 63.3334 18.9533 63.3334 30M63.3334 56.6667V59.3333C63.3334 65.2233 57.3667 70 50 70H43.3334" stroke="black" stroke-width="2.13333" stroke-linecap="round" stroke-linejoin="round"/>
</svg>
