<svg width="80" height="80" viewBox="0 0 80 80" fill="none" xmlns="http://www.w3.org/2000/svg">
<path d="M20.3 49.9969C19.0022 47.0636 18.3323 43.8912 18.3333 40.6836C18.3333 28.3336 28.0333 18.3302 40 18.3302C51.9667 18.3302 61.6667 28.3369 61.6667 40.6836C61.6677 43.8912 60.9978 47.0636 59.7 49.9969M40 6.66357V9.99691M73.3333 39.9969H70M9.99999 39.9969H6.66666M63.5667 16.4269L61.21 18.7836M18.79 18.7869L16.4333 16.4302M48.39 64.3536C51.7567 63.2636 53.11 60.1802 53.49 57.0802C53.6033 56.1536 52.84 55.3836 51.9067 55.3836H28.2567C28.0287 55.3799 27.8026 55.4247 27.5933 55.515C27.384 55.6053 27.1963 55.739 27.0425 55.9073C26.8887 56.0755 26.7724 56.2745 26.7013 56.4911C26.6302 56.7077 26.6059 56.9369 26.63 57.1636C27.0033 60.2569 27.9433 62.5169 31.51 64.3502M48.39 64.3536L31.51 64.3502M48.39 64.3536C47.9867 70.8369 46.1133 73.4036 40.0233 73.3302C33.51 73.4502 32.01 70.2736 31.51 64.3502" stroke="black" stroke-width="2.13333" stroke-linecap="round" stroke-linejoin="round"/>
</svg>
