<svg width="18" height="18" viewBox="0 0 18 18" fill="none" xmlns="http://www.w3.org/2000/svg">
<g clip-path="url(#clip0_11711_1677)">
<path fill-rule="evenodd" clip-rule="evenodd" d="M3.975 1.10649C4.09894 0.941247 4.29344 0.843994 4.5 0.843994H13.5C13.7066 0.843994 13.9011 0.941247 14.025 1.10649L16.275 4.10649C16.3602 4.22009 16.4062 4.35825 16.4062 4.50024V15.0002C16.4062 15.5721 16.1791 16.1206 15.7747 16.5249C15.3703 16.9293 14.8219 17.1565 14.25 17.1565H3.75C3.17813 17.1565 2.62968 16.9293 2.2253 16.5249C1.82093 16.1206 1.59375 15.5721 1.59375 15.0002V4.50024C1.59375 4.35825 1.6398 4.22009 1.725 4.10649L3.975 1.10649ZM4.82812 2.15649L2.90625 4.71899V15.0002C2.90625 15.224 2.99514 15.4386 3.15338 15.5969C3.31161 15.7551 3.52622 15.844 3.75 15.844H14.25C14.4738 15.844 14.6884 15.7551 14.8466 15.5969C15.0049 15.4386 15.0938 15.224 15.0938 15.0002V4.71899L13.1719 2.15649H4.82812Z" fill="#333D4C"/>
<path fill-rule="evenodd" clip-rule="evenodd" d="M1.59375 4.50024C1.59375 4.13781 1.88756 3.84399 2.25 3.84399H15.75C16.1124 3.84399 16.4062 4.13781 16.4062 4.50024C16.4062 4.86268 16.1124 5.15649 15.75 5.15649H2.25C1.88756 5.15649 1.59375 4.86268 1.59375 4.50024Z" fill="#333D4C"/>
<path fill-rule="evenodd" clip-rule="evenodd" d="M6 6.84399C6.36244 6.84399 6.65625 7.13781 6.65625 7.50024C6.65625 8.12185 6.90318 8.71799 7.34272 9.15753C7.78226 9.59706 8.3784 9.84399 9 9.84399C9.6216 9.84399 10.2177 9.59706 10.6573 9.15753C11.0968 8.71799 11.3438 8.12185 11.3438 7.50024C11.3438 7.13781 11.6376 6.84399 12 6.84399C12.3624 6.84399 12.6562 7.13781 12.6562 7.50024C12.6562 8.46994 12.271 9.39992 11.5854 10.0856C10.8997 10.7713 9.9697 11.1565 9 11.1565C8.0303 11.1565 7.10032 10.7713 6.41464 10.0856C5.72896 9.39992 5.34375 8.46994 5.34375 7.50024C5.34375 7.13781 5.63756 6.84399 6 6.84399Z" fill="#333D4C"/>
</g>
<defs>
<clipPath id="clip0_11711_1677">
<rect width="18" height="18" fill="white" transform="translate(0 0.000244141)"/>
</clipPath>
</defs>
</svg>
