<svg width="80" height="80" viewBox="0 0 80 80" fill="none" xmlns="http://www.w3.org/2000/svg">
<path d="M5 10H10.8333L13.3333 20M13.3333 20L21.6667 53.3333H65L73.3333 20H13.3333Z" stroke="black" stroke-width="2.13333" stroke-linecap="round" stroke-linejoin="round"/>
<path d="M21.6667 70C24.4282 70 26.6667 67.7614 26.6667 65C26.6667 62.2386 24.4282 60 21.6667 60C18.9053 60 16.6667 62.2386 16.6667 65C16.6667 67.7614 18.9053 70 21.6667 70Z" stroke="black" stroke-width="2.13333" stroke-linecap="round" stroke-linejoin="round"/>
<path d="M65 70C67.7614 70 70 67.7614 70 65C70 62.2386 67.7614 60 65 60C62.2386 60 60 62.2386 60 65C60 67.7614 62.2386 70 65 70Z" stroke="black" stroke-width="2.13333" stroke-linecap="round" stroke-linejoin="round"/>
</svg>
