<svg width="18" height="18" viewBox="0 0 18 18" fill="none" xmlns="http://www.w3.org/2000/svg">
<g clip-path="url(#clip0_11711_1605)">
<path fill-rule="evenodd" clip-rule="evenodd" d="M11.6004 8.69045C12.6892 7.89036 13.3958 6.60069 13.3958 5.14597C13.3958 2.71828 11.4278 0.750244 9.00009 0.750244C6.5724 0.750244 4.60437 2.71828 4.60437 5.14597C4.60437 6.60067 5.311 7.89033 6.39974 8.69041C3.15864 9.46909 0.75 12.3865 0.75 15.8665C0.75 16.6307 1.36953 17.2502 2.13376 17.2502H15.8662C16.6305 17.2502 17.25 16.6307 17.25 15.8665C17.25 12.3866 14.8414 9.46917 11.6004 8.69045ZM12.0833 5.14597C12.0833 6.84878 10.7029 8.22919 9.00009 8.22919C7.29728 8.22919 5.91687 6.84878 5.91687 5.14597C5.91687 3.44315 7.29728 2.06274 9.00009 2.06274C10.7029 2.06274 12.0833 3.44315 12.0833 5.14597ZM8.13004 9.79895H9.86996C13.221 9.79895 15.9375 12.5155 15.9375 15.8665C15.9375 15.9058 15.9056 15.9377 15.8662 15.9377H2.13376C2.0944 15.9377 2.0625 15.9058 2.0625 15.8665C2.0625 12.5155 4.77903 9.79895 8.13004 9.79895Z" fill="#333D4C"/>
</g>
<defs>
<clipPath id="clip0_11711_1605">
<rect width="18" height="18" fill="white" transform="translate(0 0.000244141)"/>
</clipPath>
</defs>
</svg>
